<svg xmlns="http://www.w3.org/2000/svg" viewBox="0 0 279.88 38.28"><defs><style>.cls-1{fill:#555;fill-rule:evenodd;}</style></defs><title>as_icon_555Asset 1xxhdpi</title><g id="Layer_2" data-name="Layer 2"><g id="Layer_1-2" data-name="Layer 1"><path class="cls-1" d="M24.31,15.3h0l2.21-3.83,2.22,3.86h4.42L28.72,7.65l-2.2-3.82L22.1,11.48l-2.22,3.85-2.21,3.82-.26.45L15.46,23h17.7l2.2,3.82h0l2.21,3.83h0l2.21,3.82H17.67l-2.21,3.83H42l2.21-3.83L42,30.63h0L39.78,26.8,37.57,23l-.8-1.4h0l-1.41-2.43H22.09v0l2.21-3.83ZM13.25,34.45,11,38.28H2.21L0,34.45,19.89,0h4.42L22.1,3.83,15.33,15.55,4.42,34.45H8.83L11,30.63l2.21-3.83H31l2.21,3.83H15.46Z"/><path class="cls-1" d="M63.43,13.27a5.83,5.83,0,0,1,4,1.24,4.63,4.63,0,0,1,1.41,3.68v.63a22.35,22.35,0,0,0-2.51-.56,19.37,19.37,0,0,0-3-.21,11.69,11.69,0,0,0-3.12.39,7.67,7.67,0,0,0-2.45,1.12,5,5,0,0,0-1.59,1.83,5.59,5.59,0,0,0-.56,2.54,5,5,0,0,0,.58,2.48,5.29,5.29,0,0,0,1.53,1.76,6.67,6.67,0,0,0,2.17,1.07,9,9,0,0,0,2.47.35,7.74,7.74,0,0,0,4-.94,9,9,0,0,0,2.53-2.17v2.73H71.4v-11a7.08,7.08,0,0,0-2-5.44,8.14,8.14,0,0,0-5.7-1.83,13.89,13.89,0,0,0-3.53.4,18.48,18.48,0,0,0-3,1.1l.8,2.2a17.74,17.74,0,0,1,2.57-1,11,11,0,0,1,2.92-.36Zm.12,6.78a16.65,16.65,0,0,1,3,.24c.87.17,1.64.34,2.32.53v1.74a4.11,4.11,0,0,1-.48,2,4.71,4.71,0,0,1-1.28,1.54,6.27,6.27,0,0,1-1.92,1,7.19,7.19,0,0,1-2.35.37,5.84,5.84,0,0,1-1.73-.25,4.61,4.61,0,0,1-1.44-.71,3.58,3.58,0,0,1-1-1.14,3.08,3.08,0,0,1-.37-1.54,3.26,3.26,0,0,1,1.36-2.76,6.49,6.49,0,0,1,3.9-1Zm32.65.1a10.16,10.16,0,0,0-.74-4,9,9,0,0,0-2-3,8.5,8.5,0,0,0-5.94-2.46,7.5,7.5,0,0,0-2.29.33A7.65,7.65,0,0,0,83.4,12a8,8,0,0,0-1.52,1.27,13.93,13.93,0,0,0-1.24,1.54V11.13H78V34.8h2.69V25.74a9.84,9.84,0,0,0,1.21,1.47,7.87,7.87,0,0,0,1.52,1.23,7.75,7.75,0,0,0,1.89.84,7.9,7.9,0,0,0,2.3.31,8.28,8.28,0,0,0,3.2-.65,8.43,8.43,0,0,0,2.76-1.85,9,9,0,0,0,1.94-2.95,10.25,10.25,0,0,0,.74-4Zm-2.77,0a7.93,7.93,0,0,1-.5,2.93,6.33,6.33,0,0,1-1.37,2.2,5.7,5.7,0,0,1-2,1.35,6.42,6.42,0,0,1-2.47.47,6.18,6.18,0,0,1-2.43-.5,6.88,6.88,0,0,1-2.09-1.41A6.48,6.48,0,0,1,81.08,23a7.41,7.41,0,0,1-.54-2.87,7.31,7.31,0,0,1,.54-2.85,6.49,6.49,0,0,1,1.47-2.19,6.88,6.88,0,0,1,2.09-1.41,6.26,6.26,0,0,1,4.88,0,6,6,0,0,1,2,1.4,6.9,6.9,0,0,1,1.38,2.21,7.79,7.79,0,0,1,.5,2.89Zm26.79,0a10.16,10.16,0,0,0-.73-4,9,9,0,0,0-2-3,8.55,8.55,0,0,0-5.94-2.46A7.41,7.41,0,0,0,107.43,12a7.71,7.71,0,0,0-1.52,1.27,13.93,13.93,0,0,0-1.24,1.54V11.13H102V34.8h2.69V25.74a9.84,9.84,0,0,0,1.21,1.47,7.87,7.87,0,0,0,1.52,1.23,7.67,7.67,0,0,0,1.88.84,8,8,0,0,0,2.31.31,8.28,8.28,0,0,0,3.2-.65,8.43,8.43,0,0,0,2.76-1.85,9.18,9.18,0,0,0,1.94-2.95,10.25,10.25,0,0,0,.73-4Zm-2.76,0a8.14,8.14,0,0,1-.5,2.93,6.48,6.48,0,0,1-1.37,2.2,5.7,5.7,0,0,1-2,1.35,6.5,6.5,0,0,1-2.47.47,6.18,6.18,0,0,1-2.43-.5,7,7,0,0,1-2.1-1.41A6.61,6.61,0,0,1,105.11,23a7.41,7.41,0,0,1-.55-2.87,7.31,7.31,0,0,1,.55-2.85,6.62,6.62,0,0,1,1.46-2.19,7,7,0,0,1,2.1-1.41,6.26,6.26,0,0,1,4.88,0,6,6,0,0,1,2,1.4A6.9,6.9,0,0,1,117,17.3a8,8,0,0,1,.5,2.89Zm21.38,3.56v-.07a4.05,4.05,0,0,0-.53-2.13A5.3,5.3,0,0,0,137,20.06a8.84,8.84,0,0,0-1.84-1c-.68-.28-1.35-.52-2-.73-.53-.16-1-.33-1.55-.51a9.34,9.34,0,0,1-1.33-.56,3.41,3.41,0,0,1-.93-.66,1.23,1.23,0,0,1-.35-.86v-.07a1.63,1.63,0,0,1,.68-1.33,3.14,3.14,0,0,1,1.91-.52,7.88,7.88,0,0,1,2.52.47,14.31,14.31,0,0,1,2.69,1.28l1.68-3A13,13,0,0,0,135.16,11a11.77,11.77,0,0,0-3.53-.56,8.26,8.26,0,0,0-2.56.39,6.21,6.21,0,0,0-2.1,1.12,5.18,5.18,0,0,0-1.4,1.78,5.29,5.29,0,0,0-.51,2.34v.07a4.29,4.29,0,0,0,.53,2.22,5,5,0,0,0,1.34,1.5,7.53,7.53,0,0,0,1.86,1c.68.26,1.36.49,2,.7l1.56.47a7.4,7.4,0,0,1,1.32.53,2.74,2.74,0,0,1,.91.68,1.35,1.35,0,0,1,.34.91v.07a1.72,1.72,0,0,1-.76,1.45,3.56,3.56,0,0,1-2.11.54,8.47,8.47,0,0,1-3-.58A12.23,12.23,0,0,1,126,23.93l-1.89,2.86a13,13,0,0,0,3.8,2.07,12.55,12.55,0,0,0,4,.69,9.79,9.79,0,0,0,2.7-.36,6.66,6.66,0,0,0,2.18-1.09,4.84,4.84,0,0,0,1.45-1.8,5.77,5.77,0,0,0,.53-2.55ZM162.62,20a9.53,9.53,0,0,0-.74-3.74,9.28,9.28,0,0,0-2-3.06,9.39,9.39,0,0,0-3.11-2.06,10.12,10.12,0,0,0-3.93-.76,9.85,9.85,0,0,0-7.05,2.85,9.74,9.74,0,0,0-2.06,3.08,9.53,9.53,0,0,0-.75,3.76,9.4,9.4,0,0,0,2.78,6.76,9.54,9.54,0,0,0,3.11,2.06,10.12,10.12,0,0,0,11-2.09,9.88,9.88,0,0,0,2.06-3.06,9.39,9.39,0,0,0,.75-3.74Zm-4.27.07a6.63,6.63,0,0,1-.38,2.29A5.34,5.34,0,0,1,152.8,26a5.28,5.28,0,0,1-2.25-.47,5.63,5.63,0,0,1-1.77-1.27,5.93,5.93,0,0,1-1.16-1.91A6.45,6.45,0,0,1,147.2,20a6.59,6.59,0,0,1,.39-2.29,5.42,5.42,0,0,1,2.86-3.15,5.74,5.74,0,0,1,4.55,0,5.6,5.6,0,0,1,1.78,1.3,6.1,6.1,0,0,1,1.16,1.9,6.53,6.53,0,0,1,.41,2.31Zm14.53-9.16v-1c0-1.87.81-2.8,2.44-2.8a6.33,6.33,0,0,1,1.28.12,10.92,10.92,0,0,1,1.2.33V4a11.83,11.83,0,0,0-1.5-.35,11.71,11.71,0,0,0-1.92-.14A5.7,5.7,0,0,0,170.16,5a6.28,6.28,0,0,0-1.48,4.57v1.32h-2.34v3.53h2.34V29.21H173V14.38h4.82V10.89Zm14,3.46h5v-3.6h-5V5.68h-4.27v5.07h-2.34v3.6h2.34v9.74a7.38,7.38,0,0,0,.39,2.58,4.12,4.12,0,0,0,1.11,1.66,4.4,4.4,0,0,0,1.71.91,7.64,7.64,0,0,0,2.14.28,8.31,8.31,0,0,0,2.1-.24,8,8,0,0,0,1.71-.7V25.12a5.9,5.9,0,0,1-2.62.62,2.42,2.42,0,0,1-1.68-.54,2.32,2.32,0,0,1-.59-1.77V14.35ZM211,10.68h-3.6L203.35,23.4l-3.7-12.65h-4.34l6,18.6h3.77l4.16-12.62,4.13,12.62h3.77l6-18.6h-4.23L215.17,23.4,211,10.68Zm31.51,18.53V18.26a7.9,7.9,0,0,0-2-5.75q-2-2-6.12-2a15.55,15.55,0,0,0-3.88.42A19.4,19.4,0,0,0,227.41,12l1.16,3.39a18.13,18.13,0,0,1,2.48-.84,11.23,11.23,0,0,1,2.8-.32,5,5,0,0,1,3.37,1,3.65,3.65,0,0,1,1.17,2.93v.46a17.62,17.62,0,0,0-2.25-.56,16.61,16.61,0,0,0-2.85-.21,11.34,11.34,0,0,0-3,.37,6.87,6.87,0,0,0-2.38,1.1,5.14,5.14,0,0,0-1.55,1.85,5.71,5.71,0,0,0-.56,2.62v.07a5.26,5.26,0,0,0,2,4.25,6.15,6.15,0,0,0,2.08,1.08,8.3,8.3,0,0,0,2.52.37,7.48,7.48,0,0,0,6-2.66v2.28Zm-4.09-6.68a3.39,3.39,0,0,1-.37,1.59,3.54,3.54,0,0,1-1,1.22,5,5,0,0,1-1.55.79,6.41,6.41,0,0,1-1.94.28,4.39,4.39,0,0,1-2.54-.7,2.29,2.29,0,0,1-1-2v-.07a2.5,2.5,0,0,1,1.12-2.2,5.44,5.44,0,0,1,3.11-.77,12.28,12.28,0,0,1,2.32.21,10.81,10.81,0,0,1,1.91.53v1.15Zm14.21-.35a10.34,10.34,0,0,1,.45-3.2,6.14,6.14,0,0,1,1.29-2.29,5.39,5.39,0,0,1,2-1.36,7,7,0,0,1,2.55-.46h.24V10.4a5.92,5.92,0,0,0-4,1.15,8.13,8.13,0,0,0-2.48,3.36V10.75H248.4V29.21h4.27v-7Zm13.57-.7h13.57c0-.21,0-.41.05-.59s0-.38,0-.56a13,13,0,0,0-.56-3.81,9.53,9.53,0,0,0-1.66-3.18,7.92,7.92,0,0,0-2.77-2.17,8.67,8.67,0,0,0-3.86-.81,8.46,8.46,0,0,0-3.63.77,9.12,9.12,0,0,0-2.85,2.08,9.37,9.37,0,0,0-1.87,3.06A10.3,10.3,0,0,0,262,20a10.08,10.08,0,0,0,.74,3.93,8.94,8.94,0,0,0,5,5,10,10,0,0,0,3.73.69,9.44,9.44,0,0,0,4.38-.94A10.22,10.22,0,0,0,279,26.16L276.55,24a9,9,0,0,1-2.27,1.65,6.23,6.23,0,0,1-2.72.55,5.27,5.27,0,0,1-3.5-1.2,5.62,5.62,0,0,1-1.82-3.48Zm0-2.8a6.05,6.05,0,0,1,1.55-3.51A4.26,4.26,0,0,1,271,13.83a4.31,4.31,0,0,1,1.87.38,4.54,4.54,0,0,1,1.41,1,4.88,4.88,0,0,1,1,1.54,7.33,7.33,0,0,1,.45,1.9Z"/></g></g></svg>